TITLE ""
FILE "DISC2Track16.mp3" MP3
  TRACK 01 AUDIO
    TITLE "DISC2Track16_01"
    INDEX 01 00:00:00
  TRACK 02 AUDIO
    TITLE "DISC2Track16_02"
    INDEX 01 00:03:63
  TRACK 03 AUDIO
    TITLE "DISC2Track16_03"
    INDEX 01 00:04:10
  TRACK 04 AUDIO
    TITLE "DISC2Track16_04"
    INDEX 01 00:07:59
  TRACK 05 AUDIO
    TITLE "DISC2Track16_05"
    INDEX 01 00:09:72
  TRACK 06 AUDIO
    TITLE "DISC2Track16_06"
    INDEX 01 00:12:06
  TRACK 07 AUDIO
    TITLE "DISC2Track16_07"
    INDEX 01 00:12:27
  TRACK 08 AUDIO
    TITLE "DISC2Track16_08"
    INDEX 01 00:15:37
  TRACK 09 AUDIO
    TITLE "DISC2Track16_09"
    INDEX 01 00:17:54
  TRACK 10 AUDIO
    TITLE "DISC2Track16_10"
    INDEX 01 00:19:63
  TRACK 11 AUDIO
    TITLE "DISC2Track16_11"
    INDEX 01 00:20:11
  TRACK 12 AUDIO
    TITLE "DISC2Track16_12"
    INDEX 01 00:23:31
  TRACK 13 AUDIO
    TITLE "DISC2Track16_13"
    INDEX 01 00:26:18
  TRACK 14 AUDIO
    TITLE "DISC2Track16_14"
    INDEX 01 00:29:00
  TRACK 15 AUDIO
    TITLE "DISC2Track16_15"
    INDEX 01 00:29:24
  TRACK 16 AUDIO
    TITLE "DISC2Track16_16"
    INDEX 01 00:32:65
  TRACK 17 AUDIO
    TITLE "DISC2Track16_17"
    INDEX 01 00:35:20
  TRACK 18 AUDIO
    TITLE "DISC2Track16_18"
    INDEX 01 00:37:35
  TRACK 19 AUDIO
    TITLE "DISC2Track16_19"
    INDEX 01 00:37:68
  TRACK 20 AUDIO
    TITLE "DISC2Track16_20"
    INDEX 01 00:42:19
  TRACK 21 AUDIO
    TITLE "DISC2Track16_21"
    INDEX 01 00:46:38
  TRACK 22 AUDIO
    TITLE "DISC2Track16_22"
    INDEX 01 00:50:49
  TRACK 23 AUDIO
    TITLE "DISC2Track16_23"
    INDEX 01 00:50:71
  TRACK 24 AUDIO
    TITLE "DISC2Track16_24"
    INDEX 01 00:56:07
  TRACK 25 AUDIO
    TITLE "DISC2Track16_25"
    INDEX 01 00:59:68
  TRACK 26 AUDIO
    TITLE "DISC2Track16_26"
    INDEX 01 01:03:44
  TRACK 27 AUDIO
    TITLE "DISC2Track16_27"
    INDEX 01 01:03:70
  TRACK 28 AUDIO
    TITLE "DISC2Track16_28"
    INDEX 01 01:05:61
  TRACK 29 AUDIO
    TITLE "DISC2Track16_29"
    INDEX 01 01:07:54
  TRACK 30 AUDIO
    TITLE "DISC2Track16_30"
    INDEX 01 01:09:37
  TRACK 31 AUDIO
    TITLE "DISC2Track16_31"
    INDEX 01 01:09:62
  TRACK 32 AUDIO
    TITLE "DISC2Track16_32"
    INDEX 01 01:13:70
  TRACK 33 AUDIO
    TITLE "DISC2Track16_33"
    INDEX 01 01:16:45
  TRACK 34 AUDIO
    TITLE "DISC2Track16_34"
    INDEX 01 01:19:27
  TRACK 35 AUDIO
    TITLE "DISC2Track16_35"
    INDEX 01 01:19:47
  TRACK 36 AUDIO
    TITLE "DISC2Track16_36"
    INDEX 01 01:23:72
  TRACK 37 AUDIO
    TITLE "DISC2Track16_37"
    INDEX 01 01:26:53
  TRACK 38 AUDIO
    TITLE "DISC2Track16_38"
    INDEX 01 01:29:28
  TRACK 39 AUDIO
    TITLE "DISC2Track16_39"
    INDEX 01 01:29:51
  TRACK 40 AUDIO
    TITLE "DISC2Track16_40"
    INDEX 01 01:32:65
  TRACK 41 AUDIO
    TITLE "DISC2Track16_41"
    INDEX 01 01:35:58
  TRACK 42 AUDIO
    TITLE "DISC2Track16_42"
    INDEX 01 01:38:46
  TRACK 43 AUDIO
    TITLE "DISC2Track16_43"
    INDEX 01 01:38:70
  TRACK 44 AUDIO
    TITLE "DISC2Track16_44"
    INDEX 01 01:40:43
  TRACK 45 AUDIO
    TITLE "DISC2Track16_45"
    INDEX 01 01:42:29
  TRACK 46 AUDIO
    TITLE "DISC2Track16_46"
    INDEX 01 01:44:04
  TRACK 47 AUDIO
    TITLE "DISC2Track16_47"
    INDEX 01 01:44:29
  TRACK 48 AUDIO
    TITLE "DISC2Track16_48"
    INDEX 01 01:48:12
  TRACK 49 AUDIO
    TITLE "DISC2Track16_49"
    INDEX 01 01:51:45
  TRACK 50 AUDIO
    TITLE "DISC2Track16_50"
    INDEX 01 01:55:00
